<?xml version="1.0" encoding="utf-8"?>
<!-- Generator: Adobe Illustrator 24.0.0, SVG Export Plug-In . SVG Version: 6.00 Build 0)  -->
<svg version="1.1" id="Calque_1" xmlns="http://www.w3.org/2000/svg" xmlns:xlink="http://www.w3.org/1999/xlink" x="0px" y="0px"
	 viewBox="0 0 1024 768" style="enable-background:new 0 0 1024 768;" xml:space="preserve">
<style type="text/css">
	.st0{fill:#303030;}
	.st1{fill:#FFFFFF;}
	.st2{font-family:'CooperBlack';}
	.st3{font-size:63.6419px;}
	.st4{font-size:41.775px;}
	.st5{fill:#FFFFFF;stroke:#0D8187;stroke-width:6;stroke-miterlimit:10;}
	.st6{fill:#FFFFFF;stroke:#000000;stroke-miterlimit:10;}
	.st7{font-size:24px;}
	.st8{fill:none;stroke:#000000;stroke-miterlimit:10;}
	.st9{font-size:18px;}
</style>
<rect class="st0" width="1024" height="768"/>
<rect x="0" y="3" class="st1" width="1024" height="72"/>
<text transform="matrix(0.7553 0 0 1 13.9126 56.0264)" class="st2 st3">Logo</text>
<text transform="matrix(1.7382 0 0 1 346.959 50.5156)" class="st2 st4">Nav bar</text>
<rect x="164" y="116" class="st5" width="717" height="600"/>
<text transform="matrix(0.7553 0 0 1 444.0357 177.7864)" class="st2 st3">Logo</text>
<rect x="200.5" y="208.5" class="st6" width="145" height="26"/>
<text transform="matrix(1 0 0 1 200.9131 198.2173)" class="st2 st7">Name</text>
<text transform="matrix(1 0 0 1 200.4346 260.3042)" class="st2 st7">Firstname</text>
<rect x="200.5" y="273.5" class="st6" width="145" height="26"/>
<text transform="matrix(1 0 0 1 200.7827 325.6958)" class="st2 st7">Gender</text>
<circle class="st8" cx="208" cy="342" r="9"/>
<circle class="st8" cx="207.5" cy="365.5" r="9"/>
<circle class="st8" cx="207.5" cy="389.5" r="9"/>
<text transform="matrix(1 0 0 1 229.6089 351.3916)" class="st2 st9">Male</text>
<text transform="matrix(1 0 0 1 229.4537 374.3755)" class="st2 st9">Female</text>
<text transform="matrix(1 0 0 1 229.4537 398.3755)" class="st2 st9">Other</text>
<text transform="matrix(1 0 0 1 198.3636 468.1387)" class="st2 st7">Country</text>
<rect x="199.5" y="477.5" class="st6" width="145" height="26"/>
<text transform="matrix(1 0 0 1 199.3126 423.1388)" class="st2 st7">Email</text>
<rect x="199.5" y="425.5" class="st6" width="145" height="26"/>
<text transform="matrix(1 0 0 1 199.3636 531.1387)" class="st2 st7">Subject</text>
<rect x="200.5" y="540.5" class="st6" width="145" height="26"/>
<text transform="matrix(1 0 0 1 198.3636 587.1387)" class="st2 st7">Message</text>
<rect x="199.5" y="596.5" class="st6" width="372" height="90"/>
<path class="st6" d="M793.5,696.5h-85c-12.7,0-23-10.3-23-23l0,0c0-12.7,10.3-23,23-23h85c12.7,0,23,10.3,23,23l0,0
	C816.5,686.2,806.2,696.5,793.5,696.5z"/>
<text transform="matrix(1 0 0 1 724.4785 680.0439)" class="st2 st9">Submit</text>
</svg>
